<svg width="100" height="100" viewBox="0 0 100 100" fill="none" xmlns="http://www.w3.org/2000/svg">
<circle cx="50" cy="50" r="50" fill="#072D69"/>
<path d="M60.2388 52.0708C62.8123 49.8211 64.6907 46.736 65.6128 43.2448C66.5348 39.7536 66.4545 36.0299 65.3832 32.5918C64.3119 29.1536 62.3027 26.172 59.6352 24.0617C56.9677 21.9513 53.7746 20.8173 50.5 20.8173C47.2254 20.8173 44.0323 21.9513 41.3648 24.0617C38.6973 26.172 36.6882 29.1536 35.6168 32.5918C34.5455 36.0299 34.4652 39.7536 35.3873 43.2448C36.3093 46.736 38.1877 49.8211 40.7613 52.0708C36.3515 54.0339 32.5038 57.2898 29.6283 61.4914C26.7529 65.6931 24.9576 70.683 24.4338 75.9292C24.3958 76.3122 24.4262 76.6998 24.5231 77.0698C24.62 77.4397 24.7815 77.7849 24.9984 78.0855C25.4366 78.6927 26.0738 79.0816 26.77 79.1667C27.4662 79.2518 28.1643 79.0261 28.7107 78.5393C29.2572 78.0524 29.6072 77.3444 29.6838 76.5708C30.2602 70.8693 32.7069 65.6036 36.5566 61.7798C40.4062 57.956 45.3889 55.8422 50.5525 55.8422C55.7162 55.8422 60.6988 57.956 64.5484 61.7798C68.3981 65.6036 70.8448 70.8693 71.4213 76.5708C71.4926 77.2875 71.8004 77.9494 72.2852 78.4288C72.7699 78.9082 73.3973 79.171 74.0463 79.1667H74.335C75.0231 79.0787 75.652 78.6921 76.0847 78.0911C76.5174 77.4902 76.7188 76.7236 76.645 75.9583C76.1187 70.6973 74.3137 65.6945 71.4235 61.4864C68.5333 57.2783 64.6669 54.0235 60.2388 52.0708V52.0708ZM50.5 50C48.4233 50 46.3932 49.3158 44.6665 48.0338C42.9398 46.7519 41.594 44.9298 40.7993 42.798C40.0046 40.6662 39.7966 38.3204 40.2018 36.0573C40.6069 33.7942 41.6069 31.7154 43.0754 30.0838C44.5438 28.4521 46.4148 27.341 48.4516 26.8908C50.4884 26.4407 52.5996 26.6717 54.5182 27.5547C56.4368 28.4378 58.0767 29.9331 59.2304 31.8517C60.3842 33.7703 61 36.0259 61 38.3333C61 41.4275 59.8938 44.395 57.9246 46.5829C55.9555 48.7708 53.2848 50 50.5 50Z" fill="#FEEA37"/>
</svg>
